<mxfile host="Electron" modified="2023-07-16T13:34:10.750Z" agent="Mozilla/5.0 (Windows NT 10.0; Win64; x64) AppleWebKit/537.36 (KHTML, like Gecko) draw.io/21.2.8 Chrome/112.0.5615.165 Electron/24.2.0 Safari/537.36" etag="zWHi4IaEnEh0z70bESZk" version="21.2.8" type="device">
  <diagram name="Page-1" id="5giRPJJ0a3-JRydrSgHV">
    <mxGraphModel dx="1628" dy="460" grid="1" gridSize="10" guides="1" tooltips="1" connect="1" arrows="1" fold="1" page="1" pageScale="1" pageWidth="850" pageHeight="1100" math="0" shadow="0">
      <root>
        <mxCell id="0" />
        <mxCell id="1" parent="0" />
        <mxCell id="n9gChSNZ-NFWRmvokWIF-1" value="" style="rounded=0;whiteSpace=wrap;html=1;" vertex="1" parent="1">
          <mxGeometry x="120" y="60" width="660" height="540" as="geometry" />
        </mxCell>
        <mxCell id="n9gChSNZ-NFWRmvokWIF-2" value="PictureStorageService" style="text;whiteSpace=wrap;html=1;" vertex="1" parent="1">
          <mxGeometry x="130" y="70" width="150" height="40" as="geometry" />
        </mxCell>
        <mxCell id="n9gChSNZ-NFWRmvokWIF-3" value="" style="endArrow=classic;html=1;rounded=0;entryX=0;entryY=0.25;entryDx=0;entryDy=0;" edge="1" parent="1" target="n9gChSNZ-NFWRmvokWIF-1">
          <mxGeometry width="50" height="50" relative="1" as="geometry">
            <mxPoint x="-40" y="195" as="sourcePoint" />
            <mxPoint x="10" y="280" as="targetPoint" />
          </mxGeometry>
        </mxCell>
        <mxCell id="n9gChSNZ-NFWRmvokWIF-4" value="/img/:id" style="edgeLabel;html=1;align=center;verticalAlign=middle;resizable=0;points=[];" vertex="1" connectable="0" parent="n9gChSNZ-NFWRmvokWIF-3">
          <mxGeometry x="-0.2982" y="1" relative="1" as="geometry">
            <mxPoint x="64" y="-14" as="offset" />
          </mxGeometry>
        </mxCell>
      </root>
    </mxGraphModel>
  </diagram>
</mxfile>
